<?xml version="1.0" encoding="utf-8"?>
<!-- Generator: Adobe Illustrator 16.0.4, SVG Export Plug-In . SVG Version: 6.00 Build 0)  -->
<!DOCTYPE svg PUBLIC "-//W3C//DTD SVG 1.1//EN" "http://www.w3.org/Graphics/SVG/1.1/DTD/svg11.dtd">
<svg version="1.1" id="Layer_1" xmlns="http://www.w3.org/2000/svg" xmlns:xlink="http://www.w3.org/1999/xlink" x="0px" y="0px"
	 width="1000.04px" height="150.6px" viewBox="0 0 1000.04 150.6" enable-background="new 0 0 1000.04 150.6" xml:space="preserve">
<path id="path_2" fill="none" stroke="#0092FF" stroke-width="23" stroke-miterlimit="10" d="M966.829,82.795v-7.529
	c0-21.229-16.689-38.409-37.309-38.409c-21.805,0-39.441,17.182-39.441,38.409c0,22.021,17.643,39.842,39.441,39.842
	c18.926,0,29.541-9.312,34.236-15.727"/>
<path id="path_1_2_" fill="none" stroke="#0092FF" stroke-width="17" stroke-miterlimit="10" d="M890.063,74.297h76.75"/>
<path id="path_1_1_" fill="none" stroke="#0092FF" stroke-width="23" stroke-miterlimit="10" d="M854.506,46.242
	c-9.799-7.938-21.621-9.797-28.381-9.797c-15.031,0-21.959,8.445-21.959,18.411c0,24.154,48.648,16.386,48.648,40.709
	c0,10.476-7.939,18.92-24.492,18.92c-12.5,0-23.646-4.393-32.438-11.655"/>
<path id="path_2_1_" fill="none" stroke="#FF0000" stroke-width="24" stroke-miterlimit="10" d="M730.196,72.596
	c-2.008-23.207,22.08-35.208,49.479-35.208"/>
<path id="path_1_7_" fill="none" stroke="#FF0000" stroke-width="25" stroke-miterlimit="10" d="M730.106,27.156v96.283"/>
<path id="path_1_3_" fill="none" stroke="#FF0000" stroke-width="25" stroke-miterlimit="10" d="M611.43,27.156v53.208
	c0,23.146,10.646,33.614,32.771,33.614c22.127,0,32.77-10.473,32.77-33.614V27.156"/>
<path id="path_1_4_" fill="none" stroke="#FFCE0A" stroke-width="24.5" stroke-miterlimit="10" d="M488.482,75.889
	c0-21.537,17.459-38.995,38.995-38.995c21.537,0,38.996,17.458,38.996,38.995s-17.459,38.996-38.996,38.996
	C505.942,114.885,488.482,97.426,488.482,75.889"/>
<path id="path_1_5_" fill="none" stroke="#37BC37" stroke-width="24.5" stroke-miterlimit="10" d="M453.66,96.242
	c-6.756,10.979-19.087,18.073-33.107,18.073c-21.623,0-38.853-17.396-38.853-38.512c0-21.117,17.396-38.349,38.853-38.349
	c13.686,0,25.676,6.928,32.604,17.229"/>
<path id="path_2_2_" fill="none" stroke="#000000" stroke-width="5" stroke-miterlimit="10" d="M351.438,77.514v-2.5
	c0-25.84-20.768-46.751-46.425-46.751c-25.674,0-46.449,20.911-46.449,46.751c0,26.769,20.775,48.426,46.449,48.426
	c21.734,0,31.05-9.832,39.322-19.664"/>
<line id="path_1_6_" fill="none" stroke="#000000" stroke-width="5" stroke-miterlimit="10" x1="258.562" y1="75.014" x2="351.438" y2="75.014"/>
<path id="path_2_3_" fill="none" stroke="#000000" stroke-width="6" stroke-miterlimit="10" d="M149.604,76.93
	c0-1.469-0.028-4.578,0.363-7.672c0.624-4.939,1.896-11.318,4.307-17.162c5.362-16.021,18.794-24.562,36.924-24.562
	c26.915,0,37.613,17.979,37.613,43.396v52.519"/>
<path fill="none" stroke="#000000" stroke-width="6" stroke-miterlimit="10" d="M149.604,27.156v96.21"/>
<path id="path_1_8_" fill="none" stroke="#000000" stroke-width="6" stroke-miterlimit="10" d="M23.291,75.846
	c0-26.246,21.275-47.521,47.52-47.521s47.52,21.275,47.52,47.521c0,26.244-21.275,47.521-47.52,47.521S23.291,102.09,23.291,75.846"
	/>
</svg>
